<?xml version="1.0" standalone="no"?>
<!DOCTYPE svg PUBLIC "-//W3C//DTD SVG 20010904//EN"
 "http://www.w3.org/TR/2001/REC-SVG-20010904/DTD/svg10.dtd">
<svg version="1.0" xmlns="http://www.w3.org/2000/svg"
 width="284.000000pt" height="284.000000pt" viewBox="0 0 284.000000 284.000000"
 preserveAspectRatio="xMidYMid meet">
<metadata>
Created by potrace 1.14, written by Peter Selinger 2001-2017
</metadata>
<g transform="translate(0.000000,284.000000) scale(0.100000,-0.100000)"
fill="#000000" stroke="none">
<path d="M0 1420 l0 -1420 1420 0 1420 0 0 1420 0 1420 -1420 0 -1420 0 0
-1420z m1615 1210 c3 -5 12 -7 19 -4 21 8 69 -20 104 -61 35 -40 66 -94 58
-102 -3 -3 1 -12 9 -20 10 -9 13 -24 9 -41 -4 -21 -3 -24 5 -12 9 13 11 13 11
-2 0 -29 -19 -30 -26 -1 -13 52 -55 138 -82 167 -34 36 -96 65 -142 67 -32 1
-33 2 -10 9 35 11 38 11 45 0z m-100 -29 c-16 -10 -38 -27 -47 -37 -37 -42
-64 -144 -37 -144 5 0 7 -5 4 -11 -16 -25 61 -81 145 -106 l45 -13 -40 6 c-21
3 -57 15 -79 26 -34 17 -38 18 -27 4 24 -28 90 -62 214 -110 65 -25 136 -55
159 -67 l41 -21 -6 29 c-6 26 -6 27 5 5 17 -33 -2 -49 -34 -28 -26 17 -321
136 -326 132 -5 -6 147 -149 204 -191 32 -24 85 -60 118 -79 33 -20 56 -36 51
-36 -24 0 -222 136 -254 174 -31 37 -28 12 5 -41 19 -32 53 -95 75 -140 31
-60 58 -98 109 -146 l67 -65 10 27 c11 26 11 26 12 -10 2 -57 -26 -131 -65
-177 -40 -47 -54 -52 -53 -19 0 20 1 20 8 3 6 -17 11 -15 39 20 26 31 70 135
59 138 -1 1 -36 33 -76 71 -59 57 -72 65 -68 45 3 -14 9 -45 12 -70 3 -25 -4
-7 -15 38 -10 46 -30 108 -44 137 -25 56 -109 200 -132 225 -7 8 -12 17 -11
20 1 3 -28 34 -65 69 -50 47 -65 67 -58 77 8 9 6 12 -7 10 -10 0 -18 6 -19 14
0 8 -6 28 -12 43 -7 16 -12 38 -12 50 0 24 31 92 52 117 17 21 60 50 73 50 5
0 -3 -8 -20 -19z m0 -201 c27 -7 27 -8 5 -8 -14 0 -36 4 -50 8 -20 6 -21 8 -5
8 11 0 34 -4 50 -8z m98 -17 c-7 -2 -21 -2 -30 0 -10 3 -4 5 12 5 17 0 24 -2
18 -5z m117 -29 c79 -24 82 -25 96 -7 10 14 13 15 14 3 0 -8 3 -26 5 -40 5
-24 5 -24 -4 -3 -6 13 -16 21 -23 18 -7 -3 -53 8 -103 24 -49 16 -85 30 -78
30 7 1 49 -11 93 -25z m-1123 10 c-3 -3 -12 -4 -19 -1 -8 3 -5 6 6 6 11 1 17
-2 13 -5z m-53 -14 c-12 -4 -31 -21 -43 -36 -11 -14 -21 -22 -21 -17 0 17 51
63 69 62 11 0 10 -3 -5 -9z m111 -10 c20 -22 30 -80 14 -80 -5 0 -9 9 -9 19 0
10 -9 29 -20 42 l-20 24 -37 -44 c-20 -24 -50 -52 -66 -61 l-29 -18 23 -21
c13 -11 32 -22 43 -22 17 -1 18 -2 4 -6 -20 -5 -78 32 -78 50 0 7 14 18 31 26
16 7 47 35 67 62 40 55 51 58 77 29z m1589 -24 c-37 -17 -64 -51 -64 -84 0
-37 32 -82 65 -91 17 -5 22 -10 12 -10 -41 -2 -87 49 -87 98 0 46 49 101 90
100 8 0 1 -6 -16 -13z m97 -15 c21 -22 29 -39 29 -66 0 -55 -33 -105 -70 -104
-9 0 -6 4 6 9 31 12 54 49 54 88 0 45 -16 71 -53 87 -20 9 -25 14 -14 15 10 0
32 -13 48 -29z m-1429 -11 c14 -11 28 -29 31 -41 7 -25 -1 -19 -17 13 -17 34
-61 46 -86 23 -24 -21 -25 -43 -5 -71 8 -12 11 -25 7 -29 -4 -5 -1 -5 5 -1 7
4 21 2 30 -3 16 -9 15 -10 -8 -11 -53 0 -77 74 -37 117 26 28 48 29 80 3z
m778 -10 c20 -6 21 -8 5 -8 -11 0 -33 4 -50 8 -27 7 -27 8 -5 8 14 0 36 -4 50
-8z m-1213 -22 c-3 -8 -6 -5 -6 6 -1 11 2 17 5 13 3 -3 4 -12 1 -19z m1388
-67 c-3 -2 -5 1 -5 7 0 13 -48 40 -105 58 -22 7 -31 13 -20 13 11 0 40 -8 64
-19 24 -11 44 -20 46 -20 1 0 1 12 -2 28 -2 15 3 7 11 -18 9 -24 13 -46 11
-49z m-1185 45 c0 -17 -39 -66 -40 -49 0 6 5 15 10 18 6 3 10 15 10 26 0 10 5
19 10 19 6 0 10 -6 10 -14z m250 -41 c-7 -8 -16 -15 -21 -15 -5 0 -1 8 9 18
20 22 31 19 12 -3z m280 -10 c16 -19 5 -61 -17 -69 -10 -4 -23 0 -32 11 -15
16 -15 16 2 4 21 -16 47 1 47 31 0 30 -30 34 -52 7 -11 -13 -16 -17 -12 -9 21
42 42 51 64 25z m699 -127 c1 -10 -3 -18 -9 -18 -5 0 -10 19 -9 43 1 36 2 38
9 17 4 -14 8 -33 9 -42z m10 -80 c-2 -48 -2 -49 -8 -18 -6 33 -3 70 5 70 2 0
3 -24 3 -52z m299 1 c-10 -5 -18 -17 -18 -24 0 -8 -4 -15 -10 -15 -5 0 -10 4
-10 9 0 14 29 41 43 41 7 0 4 -5 -5 -11z m74 -6 c27 -24 23 -68 -8 -92 -15
-12 -34 -21 -43 -21 -9 0 0 8 19 18 45 22 54 71 18 96 -12 9 -18 16 -14 16 5
0 18 -7 28 -17z m-1329 -60 c-23 -2 -64 -2 -90 0 -26 2 -7 3 42 3 50 0 71 -1
48 -3z m1252 -42 c-8 -8 -35 22 -35 38 0 12 5 10 20 -9 10 -14 17 -27 15 -29z
m-1398 33 c-3 -3 -12 -4 -19 -1 -8 3 -5 6 6 6 11 1 17 -2 13 -5z m251 -1 c-18
-5 -181 -153 -175 -160 2 -2 23 4 47 12 23 8 48 15 54 14 6 0 -12 -8 -39 -18
-28 -10 -70 -28 -94 -40 -24 -13 -41 -17 -39 -11 2 6 7 11 11 11 4 -1 18 9 30
23 12 13 53 52 92 87 38 35 69 70 67 76 -2 9 8 13 30 12 18 -1 25 -3 16 -6z
m-353 -13 c-4 -6 -10 -8 -15 -5 -5 3 -12 0 -15 -6 -4 -5 -13 -8 -20 -5 -8 3
-16 0 -18 -7 -3 -9 -8 -9 -18 1 -13 12 -2 16 39 15 6 -1 12 3 12 8 0 5 9 9 21
9 11 0 17 -5 14 -10z m154 -9 c-8 -11 -36 -52 -64 -93 -27 -40 -63 -90 -78
-110 -16 -21 -26 -38 -23 -38 3 0 29 14 58 30 65 37 36 13 -52 -42 l-64 -40
35 43 c20 24 55 73 79 109 62 93 111 160 117 160 3 0 -1 -9 -8 -19z m290 3
c93 -37 39 -90 -109 -108 l-45 -5 45 11 c105 24 120 29 135 44 22 22 5 40 -54
58 -25 8 -38 15 -29 15 10 1 35 -6 57 -15z m-419 -8 c0 -3 -35 -76 -77 -163
-42 -87 -76 -161 -75 -164 0 -3 -12 -19 -28 -34 -17 -16 -30 -25 -30 -20 0 6
-11 -7 -25 -28 -14 -20 -32 -37 -40 -37 -26 0 -16 17 35 60 39 33 54 53 63 87
10 39 13 42 18 22 5 -20 18 1 74 116 37 77 68 146 68 153 0 11 17 19 17 8z
m-137 -13 c-7 -2 -19 -2 -25 0 -7 3 -2 5 12 5 14 0 19 -2 13 -5z m-53 -10 c-8
-3 -26 -14 -39 -25 -18 -14 -33 -17 -55 -12 -28 6 -29 5 -13 -10 15 -15 15
-20 -1 -61 -9 -24 -18 -42 -20 -40 -3 2 3 22 12 45 15 38 15 40 -3 40 -11 0
-27 3 -37 7 -10 4 -15 2 -11 -3 3 -6 -11 -16 -31 -24 -100 -36 -150 -94 -162
-188 -7 -56 -7 -56 -9 -13 -2 63 31 124 92 172 56 44 89 61 192 94 62 21 129
34 85 18z m76 -111 c-20 -44 -37 -88 -37 -98 -1 -17 -2 -17 -6 -2 -2 10 12 53
31 96 20 44 37 88 37 98 1 17 2 17 6 2 2 -10 -12 -53 -31 -96z m-90 51 c-8
-15 -15 -25 -16 -21 0 12 23 58 27 54 3 -2 -2 -17 -11 -33z m-31 -88 c-7 -28
-14 -43 -14 -35 -1 19 19 93 24 88 2 -2 -2 -26 -10 -53z m1282 -32 c-3 -10 -5
-2 -5 17 0 19 2 27 5 18 2 -10 2 -26 0 -35z m-1373 -22 c-4 -17 -9 -30 -11
-27 -3 2 -2 19 2 36 9 41 17 33 9 -9z m1775 5 c9 -11 10 -20 1 -35 -6 -12 -13
-21 -16 -21 -2 0 0 9 7 21 16 31 -4 48 -34 30 -20 -13 -21 -13 -8 2 17 21 35
22 50 3z m-1705 -50 c-3 -21 -8 -35 -11 -32 -2 2 -1 20 3 40 3 21 8 35 11 32
2 -2 1 -20 -3 -40z m1313 -3 c-3 -10 -5 -4 -5 12 0 17 2 24 5 18 2 -7 2 -21 0
-30z m353 2 c11 -13 10 -14 -4 -9 -9 3 -16 10 -16 15 0 13 6 11 20 -6z m-1759
-75 c-5 -41 -9 -52 -10 -30 -1 39 11 120 16 105 1 -6 -1 -39 -6 -75z m1016 40
c-67 -9 -108 -39 -138 -105 -10 -22 -19 -33 -19 -25 0 16 33 75 55 97 28 27
71 43 115 42 44 -2 44 -2 -13 -9z m104 -19 c23 -19 23 -21 7 -37 -16 -17 -19
-17 -36 -1 -10 9 -25 17 -33 18 -11 0 -11 2 -1 6 7 3 22 -3 32 -12 18 -16 40
-13 40 5 0 5 -12 16 -27 24 -16 8 -23 15 -17 16 7 0 22 -9 35 -19z m-1044 -13
c-3 -8 -6 -5 -6 6 -1 11 2 17 5 13 3 -3 4 -12 1 -19z m906 -14 c-38 -19 -60
-50 -72 -101 -6 -26 -9 -31 -10 -15 -2 52 57 132 98 132 9 0 2 -8 -16 -16z
m-1123 -72 c19 -13 48 -26 63 -29 21 -4 25 -8 15 -14 -8 -5 6 -8 37 -8 40 1
45 3 25 9 l-25 8 27 1 c23 1 30 9 47 54 11 28 20 46 20 39 1 -7 -5 -28 -13
-47 -8 -18 -11 -36 -8 -40 13 -13 -33 -35 -72 -35 -23 0 -59 9 -81 19 -45 20
-95 73 -95 99 0 12 4 9 13 -8 7 -13 28 -35 47 -48z m1225 -39 c-16 -2 -36 -12
-42 -21 -7 -8 -13 -11 -13 -6 0 19 24 34 55 33 l30 -2 -30 -4z m78 -10 c-7 -2
-19 -2 -25 0 -7 3 -2 5 12 5 14 0 19 -2 13 -5z m900 0 c-7 -2 -19 -2 -25 0 -7
3 -2 5 12 5 14 0 19 -2 13 -5z m-83 -39 c-21 -19 -42 -44 -45 -55 -4 -10 -11
-18 -17 -16 -21 4 -65 -78 -102 -188 -20 -60 -45 -123 -55 -138 -10 -16 -16
-38 -13 -49 5 -19 1 -19 -54 -13 -78 10 -81 15 -9 15 32 0 55 3 52 6 -3 4 4
25 17 48 13 22 36 79 51 126 42 128 61 165 112 215 26 25 43 45 38 45 -5 0
-53 -44 -107 -97 -54 -53 -99 -95 -102 -92 -2 2 1 15 6 29 7 20 11 22 18 10 5
-8 10 -12 11 -7 1 4 2 10 3 15 2 10 103 103 159 146 62 46 89 47 37 0z m170
16 c37 -19 79 -65 68 -75 -3 -3 -11 6 -18 20 -11 21 -57 50 -110 68 -12 4 -11
6 3 6 10 1 36 -8 57 -19z m-1259 -51 c10 -15 38 -36 61 -48 24 -11 37 -21 30
-21 -40 0 -123 76 -121 111 0 11 2 11 6 -1 3 -8 14 -27 24 -41z m85 -19 c41
-16 89 -12 120 11 l29 21 -29 -27 c-26 -24 -36 -27 -78 -23 -52 5 -108 46
-108 77 0 9 9 1 20 -17 11 -18 32 -37 46 -42z m151 48 c-3 -8 -6 -5 -6 6 -1
11 2 17 5 13 3 -3 4 -12 1 -19z m920 -50 c-2 -13 -4 -3 -4 22 0 25 2 35 4 23
2 -13 2 -33 0 -45z m-917 -27 c0 -5 12 -14 28 -19 15 -6 20 -11 12 -11 -9 -1
-25 6 -37 14 -19 13 -25 13 -57 0 -19 -8 -46 -15 -58 -14 -13 0 -2 6 25 13 26
7 50 16 54 19 10 10 33 8 33 -2z m1097 -13 c-3 -8 -6 -5 -6 6 -1 11 2 17 5 13
3 -3 4 -12 1 -19z m-310 -10 c-3 -8 -6 -5 -6 6 -1 11 2 17 5 13 3 -3 4 -12 1
-19z m120 -15 c-3 -10 -5 -4 -5 12 0 17 2 24 5 18 2 -7 2 -21 0 -30z m200 -45
c-2 -13 -4 -5 -4 17 -1 22 1 32 4 23 2 -10 2 -28 0 -40z m-333 -2 c-3 -21 -8
-35 -11 -32 -2 2 -1 20 3 40 3 21 8 35 11 32 2 -2 1 -20 -3 -40z m-1616 12
c19 -19 14 -56 -9 -69 -17 -9 -24 -8 -38 7 -15 16 -15 17 0 6 23 -17 49 -4 49
24 0 35 -28 42 -52 13 -11 -13 -16 -17 -12 -9 20 41 40 50 62 28z m1739 -20
c-3 -7 -5 -2 -5 12 0 14 2 19 5 13 2 -7 2 -19 0 -25z m-290 -10 c-2 -13 -10
-36 -19 -53 -8 -16 -30 -64 -47 -106 -18 -42 -42 -85 -54 -95 -22 -19 -22 -19
-4 2 10 12 33 58 52 102 18 44 41 94 50 111 8 17 13 31 11 31 -3 0 -58 -32
-123 -72 -134 -81 -246 -165 -237 -179 3 -5 23 -12 45 -15 44 -7 35 -24 -11
-24 -20 0 -22 2 -10 11 11 8 7 9 -17 4 -24 -5 -49 1 -93 21 -70 31 -91 51 -69
65 22 14 35 10 14 -4 -16 -13 -13 -17 45 -45 35 -18 73 -32 84 -32 17 0 18 2
6 10 -18 11 1 34 85 97 59 45 59 45 25 39 -29 -5 -27 -3 15 14 28 11 95 47
150 79 55 32 101 59 102 60 1 1 1 -9 0 -21z m-1165 -25 c24 -28 71 -113 65
-119 -2 -3 -14 14 -26 38 -12 24 -30 54 -40 67 l-19 25 -16 -54 c-9 -29 -16
-60 -16 -68 0 -9 -3 -12 -7 -9 -8 8 26 137 37 137 4 0 14 -8 22 -17z m1443
-23 c-9 -41 -17 -33 -9 9 4 17 9 30 11 27 3 -2 2 -19 -2 -36z m201 -8 c-17
-32 -72 -79 -123 -106 -36 -18 -56 -21 -33 -5 12 8 9 9 -10 4 -14 -3 -31 -7
-37 -7 -7 -1 -13 -5 -13 -10 0 -5 9 -6 20 -3 11 3 20 4 20 1 0 -6 -111 -38
-116 -34 -2 3 13 10 33 17 23 9 31 16 23 21 -10 6 -9 17 4 51 9 24 14 32 11
17 -3 -14 -8 -34 -11 -43 -5 -13 -2 -15 22 -9 92 21 212 103 215 147 0 9 2 9
5 0 3 -6 -2 -25 -10 -41z m-355 -61 c-17 -38 -31 -78 -31 -89 0 -22 26 -37 35
-22 4 6 16 10 28 10 17 -1 15 -4 -12 -16 -69 -30 -79 7 -31 116 17 38 30 74
31 82 0 9 2 9 5 1 3 -6 -9 -43 -25 -82z m-432 -25 c-7 -7 -142 -37 -146 -32
-3 2 24 11 59 19 66 16 94 20 87 13z m-922 -53 c-3 -10 -5 -4 -5 12 0 17 2 24
5 18 2 -7 2 -21 0 -30z m167 -33 c3 -14 -3 -7 -13 15 -11 22 -20 45 -20 50 0
15 26 -37 33 -65z m-172 -118 c-10 -57 -10 -57 -10 33 0 73 2 84 9 57 6 -20 6
-55 1 -90z m127 38 c55 -44 101 -79 101 -77 0 3 -11 30 -25 62 -14 32 -24 59
-22 62 3 2 12 -15 22 -39 9 -24 31 -65 48 -93 17 -27 30 -58 29 -68 0 -9 3
-15 8 -12 4 3 15 -6 24 -20 9 -14 23 -36 32 -50 29 -45 -3 -26 -41 24 -26 34
-67 66 -139 110 -55 34 -112 71 -126 82 l-25 21 30 -18 c17 -10 72 -44 123
-76 50 -31 92 -55 92 -52 0 32 -234 225 -243 201 -3 -7 -6 -5 -6 6 -1 9 3 17
8 17 4 0 54 -36 110 -80z m-483 49 c-17 -13 -26 -30 -26 -49 0 -60 62 -81 99
-34 12 15 21 22 21 16 0 -19 -43 -52 -67 -52 -31 0 -63 34 -63 68 0 28 31 72
52 72 6 0 -1 -9 -16 -21z m84 6 c19 -22 8 -25 -12 -3 -10 10 -14 18 -9 18 5 0
14 -7 21 -15z m1586 3 c5 -8 0 -9 -14 -6 -12 4 -20 2 -16 -3 3 -5 -2 -9 -10
-9 -17 0 -21 12 -9 23 10 11 41 8 49 -5z m-210 -41 c4 -4 -4 -7 -19 -7 -14 0
-28 4 -31 8 -6 11 40 9 50 -1z m72 6 c-10 -2 -28 -2 -40 0 -13 2 -5 4 17 4 22
1 32 -1 23 -4z m-138 -19 c0 -2 -24 -3 -52 -3 -43 1 -47 3 -23 8 28 6 75 3 75
-5z m-1023 -81 c-3 -10 -5 -2 -5 17 0 19 2 27 5 18 2 -10 2 -26 0 -35z m-10
-55 c-3 -7 -5 -2 -5 12 0 14 2 19 5 13 2 -7 2 -19 0 -25z m27 -25 c6 -41 -6
-59 -18 -28 -5 13 3 80 9 73 1 -2 5 -22 9 -45z m186 -69 c115 -45 162 -76 218
-143 24 -28 47 -49 52 -46 10 6 25 -53 16 -62 -3 -4 -6 3 -6 14 0 31 -35 55
-108 75 -47 13 -55 17 -25 13 23 -3 49 -8 59 -12 35 -13 3 17 -49 47 -48 28
-61 43 -15 19 11 -6 22 -8 25 -6 8 9 -78 55 -178 96 -115 47 -168 73 -169 84
0 4 19 -3 43 -17 23 -13 85 -41 137 -62z m554 23 c8 -13 6 -21 -8 -34 -18 -17
-18 -17 -5 4 16 27 2 47 -25 37 -12 -5 -16 -14 -13 -30 2 -13 0 -24 -4 -24
-16 0 -9 49 9 59 21 13 32 10 46 -12z m-1159 -7 c-31 -12 -43 -31 -51 -78 -6
-37 -3 -44 24 -72 32 -32 33 -34 7 -24 -22 9 -45 56 -45 93 0 34 43 91 68 90
13 0 12 -2 -3 -9z m109 -13 c19 -15 26 -28 21 -36 -5 -9 -11 -6 -19 10 -6 13
-23 29 -36 36 -14 7 -18 13 -10 13 8 0 28 -11 44 -23z m411 -25 c-2 -2 -17 4
-34 12 -42 22 -51 20 -52 -11 0 -25 -1 -26 -9 -8 -12 27 -12 47 -1 40 5 -3 12
-1 15 4 4 5 24 0 45 -12 22 -12 38 -23 36 -25z m956 8 c10 -6 19 -16 19 -22 0
-6 -8 -4 -18 5 -28 25 -67 21 -91 -9 -12 -15 -21 -22 -21 -16 0 19 43 52 68
52 13 0 32 -5 43 -10z m293 2 c3 -5 -8 -6 -25 -4 -16 2 -29 6 -29 8 0 8 49 4
54 -4z m-96 -31 c-26 -23 -32 -36 -31 -67 1 -24 8 -43 19 -51 17 -12 24 -8 65
39 26 29 50 50 53 47 4 -4 -4 -13 -18 -22 -13 -9 -34 -32 -46 -52 -14 -22 -28
-34 -36 -31 -8 3 -14 3 -14 0 0 -2 10 -9 23 -14 15 -6 17 -9 6 -9 -9 -1 -27 7
-40 17 -42 35 -32 119 20 159 31 24 31 12 -1 -16z m162 -48 c0 -38 -28 -89
-56 -102 -39 -17 -40 -13 -3 12 28 19 35 30 39 69 5 37 3 45 -9 40 -9 -3 -12
-1 -7 6 3 6 2 13 -4 17 -5 3 -10 14 -10 23 1 29 50 -35 50 -65z m-1265 57 c13
-6 15 -9 5 -9 -8 0 -22 4 -30 9 -18 12 -2 12 25 0z m-434 -43 c-8 -8 -11 -7
-11 4 0 20 13 34 18 19 3 -7 -1 -17 -7 -23z m523 17 c26 -9 45 -18 43 -20 -2
-2 -28 5 -58 15 -30 11 -49 20 -43 20 6 1 32 -6 58 -15z m-616 -69 l34 -30 30
35 31 35 -19 -32 c-18 -33 -71 -60 -97 -50 -6 3 -2 6 11 6 34 1 27 17 -28 58
-27 20 -50 42 -50 47 0 9 16 -3 88 -69z m420 60 c9 1 11 0 5 -2 -17 -6 -17
-14 9 -97 14 -45 23 -64 26 -51 6 30 18 38 39 26 16 -11 16 -11 -5 -6 -22 6
-23 4 -20 -44 2 -28 6 -51 9 -51 3 0 11 -11 17 -25 6 -14 7 -25 3 -25 -14 0
-55 94 -85 191 -23 76 -34 126 -20 93 3 -7 13 -11 22 -9z m117 -35 c39 -16 65
-30 58 -30 -6 0 -42 13 -80 30 -37 16 -63 29 -58 30 6 0 42 -13 80 -30z m815
-27 c24 -28 89 -2 91 36 0 11 2 12 6 3 3 -7 -5 -24 -18 -38 -36 -39 -81 -31
-105 20 -13 28 -13 29 0 11 9 -11 20 -26 26 -32z m-697 -10 c-7 -2 -21 -2 -30
0 -10 3 -4 5 12 5 17 0 24 -2 18 -5z m-58 -85 c13 -5 9 -6 -15 -2 -19 4 -42
10 -50 15 -18 11 34 1 65 -13z m90 -18 c27 -7 27 -8 5 -8 -14 0 -36 4 -50 8
-20 6 -21 8 -5 8 11 0 34 -4 50 -8z m108 -17 c-13 -2 -35 -2 -50 0 -16 2 -5 4
22 4 28 0 40 -2 28 -4z m62 -50 c-4 -26 -13 -60 -21 -76 -16 -29 -68 -67 -94
-67 -8 0 4 9 27 19 47 22 68 54 78 124 4 26 10 47 12 47 3 0 2 -21 -2 -47z
m-323 -68 c20 -26 63 -52 108 -66 17 -5 19 -8 7 -8 -27 -1 -88 33 -121 68 -17
17 -26 31 -22 31 5 0 17 -11 28 -25z m181 -82 c-7 -2 -21 -2 -30 0 -10 3 -4 5
12 5 17 0 24 -2 18 -5z"/>
<path d="M640 2346 c0 -2 8 -10 18 -17 15 -13 16 -12 3 4 -13 16 -21 21 -21
13z"/>
<path d="M875 1730 c-3 -6 1 -7 9 -4 18 7 21 14 7 14 -6 0 -13 -4 -16 -10z"/>
<path d="M485 1460 c-16 -17 -16 -20 -3 -15 9 4 19 13 22 21 7 19 2 18 -19 -6z"/>
<path d="M478 1823 c7 -3 16 -2 19 1 4 3 -2 6 -13 5 -11 0 -14 -3 -6 -6z"/>
<path d="M1910 1060 c-9 -6 -10 -10 -3 -10 6 0 15 5 18 10 8 12 4 12 -15 0z"/>
<path d="M2490 1035 c-14 -8 -20 -14 -14 -15 5 0 19 7 30 15 24 18 16 19 -16
0z"/>
</g>
</svg>
