<svg xmlns="http://www.w3.org/2000/svg" xmlns:v="https://svgstorm.com"
viewBox = "0 0 325 284"
width="325"
height="284">
<g fill="None" fill-opacity="0.0" stroke="#000000" stroke-opacity="1.00" stroke-width="0.3"><path d="
M 0.00 284.00 
L 325.00 284.00
L 325.00 0.00
L 0.00 0.00
L 0.00 284.00
M 203.00 44.00 
C 204.97 50.14 205.92 56.92 208.00 63.00
C 208.48 64.39 209.44 66.10 210.00 68.00
C 210.24 68.83 210.82 69.71 211.00 71.00
C 213.93 81.52 214.45 93.25 214.00 105.00
C 213.64 114.41 210.93 124.15 203.00 130.00
C 200.26 118.18 200.05 105.69 196.00 94.00
C 193.20 85.03 187.25 77.30 182.70 69.30 C 178.14 61.31 169.72 56.76 165.00 49.00
C 164.61 48.36 164.14 47.75 164.00 47.00
C 163.91 46.52 164.03 45.00 164.00 45.00
C 163.74 44.98 163.05 43.22 163.00 43.00
C 160.95 34.43 167.10 24.74 175.00 22.00
C 190.77 16.53 198.98 31.44 203.00 44.00
M 83.00 67.00 
C 78.14 67.93 71.04 65.41 70.00 60.00
C 68.46 52.00 75.47 46.62 83.00 48.00
C 92.42 49.01 92.07 65.25 83.00 67.00
M 253.00 52.00 
C 262.57 56.47 259.88 71.67 248.99 70.99 C 238.11 70.31 235.90 55.73 246.00 52.00
C 248.63 51.03 250.38 50.77 253.00 52.00
M 112.00 66.00 
C 106.06 68.60 100.88 62.81 104.00 57.00
C 109.23 47.27 122.98 61.20 112.00 66.00
M 142.00 65.00 
C 145.86 66.49 143.08 73.71 138.99 71.99 C 134.90 70.27 137.18 63.14 142.00 65.00
M 244.00 97.00 
C 237.76 95.35 239.21 85.85 245.00 85.00
C 255.86 83.40 254.58 99.79 244.00 97.00
M 123.00 93.00 
C 129.52 93.91 133.92 93.73 140.02 96.98 C 146.13 100.22 137.87 104.47 132.99 104.99 C 128.11 105.51 120.87 107.31 115.93 108.93 C 110.98 110.55 105.68 113.78 101.00 116.00
C 93.39 119.60 86.61 124.78 80.00 130.00
C 76.04 133.12 72.47 138.82 68.00 141.00
C 67.60 141.20 67.00 141.00 67.00 141.00
C 61.15 148.63 45.12 143.04 42.00 135.00
C 38.64 126.33 40.31 118.25 47.00 112.00
C 54.61 104.90 65.11 101.64 75.00 99.00
C 78.01 98.19 80.76 97.12 84.00 97.00
C 88.25 95.55 90.80 93.97 96.00 94.00
C 97.33 94.01 98.67 94.00 100.00 94.00
C 107.22 92.09 114.85 91.86 123.00 93.00
M 240.00 118.00 
C 243.12 119.87 239.85 126.01 236.33 123.67 C 232.81 121.33 236.63 115.98 240.00 118.00
M 172.00 134.00 
C 163.43 123.64 149.18 134.47 152.00 146.00 C 154.82 157.53 172.83 157.71 174.00 146.00
C 170.67 146.00 167.33 146.00 164.00 146.00
C 164.54 139.93 174.50 144.35 179.00 143.00
C 179.00 148.00 179.00 153.00 179.00 158.00
C 175.69 158.78 174.15 157.46 173.00 155.00
C 165.69 160.50 154.94 158.92 149.25 150.75 C 143.55 142.59 149.11 132.47 156.08 128.08 C 163.05 123.68 180.62 128.83 172.00 134.00
M 273.00 145.00 
C 283.06 148.44 285.32 157.79 284.00 167.00
C 282.44 177.94 266.71 184.45 256.00 187.00
C 254.62 187.33 253.35 187.68 252.00 188.00
C 242.75 191.70 233.33 194.03 223.00 195.00
C 209.09 197.93 191.86 196.22 181.00 187.00
C 191.02 181.42 205.02 181.79 215.03 176.03 C 225.03 170.26 234.00 166.10 243.00 159.00
C 247.59 154.92 252.80 149.27 258.00 146.00
C 259.58 145.01 261.18 144.30 263.00 144.00
C 266.35 143.44 270.00 143.97 273.00 145.00
M 89.00 163.00 
C 92.87 164.50 90.08 171.71 85.99 169.99 C 81.90 168.27 84.18 161.14 89.00 163.00
M 160.00 238.00 
C 160.35 238.74 160.70 240.14 161.00 241.00
C 162.09 244.17 162.56 248.49 162.00 252.00
C 159.16 269.87 137.96 267.91 129.00 257.00
C 125.19 252.36 122.86 246.81 121.00 241.00
C 119.63 236.72 118.37 232.34 117.00 228.00
C 116.27 225.70 115.68 223.35 115.00 221.00
C 114.69 219.92 114.40 219.09 114.00 218.00
C 107.87 202.84 110.27 181.92 116.00 167.00
C 125.52 176.41 127.83 192.87 135.25 204.75 C 142.68 216.62 148.55 228.53 160.00 238.00
M 81.00 190.00 
C 89.31 191.82 84.00 206.72 76.00 203.00 C 68.00 199.28 73.76 188.42 81.00 190.00
M 187.00 216.00 
C 190.22 217.86 186.81 223.83 183.33 221.67 C 179.85 219.50 184.43 214.52 187.00 216.00
M 81.00 218.00 
C 86.80 220.68 87.38 225.69 85.00 230.00
C 83.56 232.61 82.23 235.26 79.00 236.00
C 70.15 238.03 64.20 230.59 67.00 223.00
C 69.12 217.26 75.40 215.41 81.00 218.00
M 219.00 221.00 
C 226.18 224.02 220.00 238.37 212.33 233.67 C 204.66 228.97 210.94 217.61 219.00 221.00
M 254.00 235.00 
C 250.78 239.84 245.37 241.43 240.00 239.00
C 234.04 236.31 234.16 230.27 237.00 226.00
C 239.86 221.70 243.65 219.81 249.00 221.00
C 255.89 222.53 257.14 230.28 254.00 235.00 Z"/>
</g>
<g fill="None" fill-opacity="0.0" stroke="#1C4853" stroke-opacity="1.00" stroke-width="0.3"><path d="
M 175.00 22.00 
C 189.17 19.11 197.18 30.55 201.00 42.00
C 201.35 42.61 202.66 43.42 203.00 44.00
C 198.98 31.44 190.77 16.53 175.00 22.00 Z"/>
</g>
<g fill="None" fill-opacity="0.0" stroke="#31B9DB" stroke-opacity="1.00" stroke-width="0.3"><path d="
M 163.00 43.00 
C 163.31 41.80 172.86 45.23 176.02 44.98 C 179.19 44.72 186.45 46.73 190.22 47.78 C 193.99 48.82 199.96 51.20 204.00 52.00
C 203.38 48.57 201.62 45.47 201.00 42.00
C 197.18 30.55 189.17 19.11 175.00 22.00
C 167.10 24.74 160.95 34.43 163.00 43.00 Z"/>
</g>
<g fill="None" fill-opacity="0.0" stroke="#1199BA" stroke-opacity="1.00" stroke-width="0.3"><path d="
M 163.00 43.00 
C 163.05 43.22 163.74 44.98 164.00 45.00
C 173.05 58.56 195.67 52.77 208.00 63.00
C 205.92 56.92 204.97 50.14 203.00 44.00
C 202.66 43.42 201.35 42.61 201.00 42.00
C 201.62 45.47 203.38 48.57 204.00 52.00
C 199.96 51.20 193.99 48.82 190.22 47.78 C 186.45 46.73 179.19 44.72 176.02 44.98 C 172.86 45.23 163.31 41.80 163.00 43.00 Z"/>
</g>
<g fill="None" fill-opacity="0.0" stroke="#0E809C" stroke-opacity="1.00" stroke-width="0.3"><path d="
M 164.00 47.00 
C 175.97 62.46 195.04 61.58 210.00 72.00
C 210.00 70.67 210.00 69.33 210.00 68.00
C 209.44 66.10 208.48 64.39 208.00 63.00
C 195.67 52.77 173.05 58.56 164.00 45.00
C 164.03 45.00 163.91 46.52 164.00 47.00 Z"/>
</g>
<g fill="None" fill-opacity="0.0" stroke="#0A6075" stroke-opacity="1.00" stroke-width="0.3"><path d="
M 165.00 49.00 
C 179.51 64.55 193.30 78.95 212.00 88.00
C 212.26 82.17 211.91 76.55 211.00 71.00
C 210.82 69.71 210.24 68.83 210.00 68.00
C 210.00 69.33 210.00 70.67 210.00 72.00
C 195.04 61.58 175.97 62.46 164.00 47.00
C 164.14 47.75 164.61 48.36 165.00 49.00 Z"/>
</g>
<g fill="None" fill-opacity="0.0" stroke="#BEE3ED" stroke-opacity="1.00" stroke-width="0.3"><path d="
M 70.00 60.00 
C 72.19 63.44 82.54 51.37 83.00 49.00
C 83.09 48.52 83.00 48.00 83.00 48.00
C 75.47 46.62 68.46 52.00 70.00 60.00 Z"/>
</g>
<g fill="None" fill-opacity="0.0" stroke="#416D78" stroke-opacity="1.00" stroke-width="0.3"><path d="
M 83.00 49.00 
C 90.69 51.51 91.17 64.70 83.00 67.00
C 92.07 65.25 92.42 49.01 83.00 48.00
C 83.00 48.00 83.09 48.52 83.00 49.00 Z"/>
</g>
<g fill="None" fill-opacity="0.0" stroke="#8AD6EA" stroke-opacity="1.00" stroke-width="0.3"><path d="
M 70.00 60.00 
C 71.04 65.41 78.14 67.93 83.00 67.00
C 91.17 64.70 90.69 51.51 83.00 49.00
C 82.54 51.37 72.19 63.44 70.00 60.00 Z"/>
</g>
<g fill="None" fill-opacity="0.0" stroke="#063845" stroke-opacity="1.00" stroke-width="0.3"><path d="
M 196.00 94.00 
C 199.74 100.17 207.89 105.86 212.00 111.00
C 212.91 109.17 212.34 106.26 214.00 105.00
C 214.45 93.25 213.93 81.52 211.00 71.00
C 211.91 76.55 212.26 82.17 212.00 88.00
C 193.30 78.95 179.51 64.55 165.00 49.00
C 169.72 56.76 178.14 61.31 182.70 69.30 C 187.25 77.30 193.20 85.03 196.00 94.00 Z"/>
</g>
<g fill="None" fill-opacity="0.0" stroke="#637377" stroke-opacity="1.00" stroke-width="0.3"><path d="
M 246.00 52.00 
C 247.66 51.66 251.37 51.54 253.00 52.00
C 250.38 50.77 248.63 51.03 246.00 52.00 Z"/>
</g>
<g fill="None" fill-opacity="0.0" stroke="#97D5E6" stroke-opacity="1.00" stroke-width="0.3"><path d="
M 253.00 52.00 
C 251.37 51.54 247.66 51.66 246.00 52.00
C 235.90 55.73 238.11 70.31 248.99 70.99 C 259.88 71.67 262.57 56.47 253.00 52.00 Z"/>
</g>
<g fill="None" fill-opacity="0.0" stroke="#2EA7C7" stroke-opacity="1.00" stroke-width="0.3"><path d="
M 104.00 57.00 
C 102.32 62.06 106.84 67.11 112.00 66.00
C 122.98 61.20 109.23 47.27 104.00 57.00 Z"/>
</g>
<g fill="None" fill-opacity="0.0" stroke="#185F71" stroke-opacity="1.00" stroke-width="0.3"><path d="
M 112.00 66.00 
C 106.84 67.11 102.32 62.06 104.00 57.00
C 100.88 62.81 106.06 68.60 112.00 66.00 Z"/>
</g>
<g fill="None" fill-opacity="0.0" stroke="#074150" stroke-opacity="1.00" stroke-width="0.3"><path d="
M 142.00 65.00 
C 137.18 63.14 134.90 70.27 138.99 71.99 C 143.08 73.71 145.86 66.49 142.00 65.00 Z"/>
</g>
<g fill="None" fill-opacity="0.0" stroke="#167B94" stroke-opacity="1.00" stroke-width="0.3"><path d="
M 244.00 97.00 
C 239.17 95.19 240.47 86.05 245.00 85.00
C 239.21 85.85 237.76 95.35 244.00 97.00 Z"/>
</g>
<g fill="None" fill-opacity="0.0" stroke="#2FA8C8" stroke-opacity="1.00" stroke-width="0.3"><path d="
M 244.00 97.00 
C 254.58 99.79 255.86 83.40 245.00 85.00
C 240.47 86.05 239.17 95.19 244.00 97.00 Z"/>
</g>
<g fill="None" fill-opacity="0.0" stroke="#063844" stroke-opacity="1.00" stroke-width="0.3"><path d="
M 100.00 94.00 
C 103.33 94.00 106.67 94.00 110.00 94.00
C 99.21 106.27 94.45 121.40 80.00 130.00
C 86.61 124.78 93.39 119.60 101.00 116.00
C 110.50 110.47 117.31 101.84 126.00 95.00
C 125.76 93.33 123.15 94.83 123.00 93.00
C 114.85 91.86 107.22 92.09 100.00 94.00 Z"/>
</g>
<g fill="None" fill-opacity="0.0" stroke="#031F26" stroke-opacity="1.00" stroke-width="0.3"><path d="
M 101.00 116.00 
C 105.68 113.78 110.98 110.55 115.93 108.93 C 120.87 107.31 128.11 105.51 132.99 104.99 C 137.87 104.47 146.13 100.22 140.02 96.98 C 133.92 93.73 129.52 93.91 123.00 93.00
C 123.15 94.83 125.76 93.33 126.00 95.00
C 117.31 101.84 110.50 110.47 101.00 116.00 Z"/>
</g>
<g fill="None" fill-opacity="0.0" stroke="#05303A" stroke-opacity="1.00" stroke-width="0.3"><path d="
M 84.00 97.00 
C 85.19 96.96 86.87 97.34 88.00 97.00
C 88.23 96.93 89.48 96.19 90.00 96.00
C 91.38 95.51 94.67 94.17 96.00 94.00
C 90.80 93.97 88.25 95.55 84.00 97.00 Z"/>
</g>
<g fill="None" fill-opacity="0.0" stroke="#095568" stroke-opacity="1.00" stroke-width="0.3"><path d="
M 90.00 96.00 
C 91.94 95.66 94.04 96.25 96.00 96.00
C 87.09 111.47 83.64 129.37 68.00 141.00
C 72.47 138.82 76.04 133.12 80.00 130.00
C 94.45 121.40 99.21 106.27 110.00 94.00
C 106.67 94.00 103.33 94.00 100.00 94.00
C 98.67 94.00 97.33 94.01 96.00 94.00
C 94.67 94.17 91.38 95.51 90.00 96.00 Z"/>
</g>
<g fill="None" fill-opacity="0.0" stroke="#02181E" stroke-opacity="1.00" stroke-width="0.3"><path d="
M 214.00 105.00 
C 212.34 106.26 212.91 109.17 212.00 111.00
C 207.89 105.86 199.74 100.17 196.00 94.00
C 200.05 105.69 200.26 118.18 203.00 130.00
C 210.93 124.15 213.64 114.41 214.00 105.00 Z"/>
</g>
<g fill="None" fill-opacity="0.0" stroke="#0C6B83" stroke-opacity="1.00" stroke-width="0.3"><path d="
M 88.00 97.00 
C 88.41 100.16 86.18 106.08 83.22 111.22 C 80.27 116.36 80.05 123.74 78.02 129.02 C 76.00 134.31 69.12 135.91 67.00 141.00
C 67.00 141.00 67.60 141.20 68.00 141.00
C 83.64 129.37 87.09 111.47 96.00 96.00
C 94.04 96.25 91.94 95.66 90.00 96.00
C 89.48 96.19 88.23 96.93 88.00 97.00 Z"/>
</g>
<g fill="None" fill-opacity="0.0" stroke="#0E86A3" stroke-opacity="1.00" stroke-width="0.3"><path d="
M 75.00 99.00 
C 74.41 99.29 73.55 100.70 73.00 101.00
C 74.33 101.03 75.67 100.97 77.00 101.00
C 69.54 113.61 70.84 129.55 64.00 142.00
C 65.02 141.71 66.07 141.67 67.00 141.00
C 69.12 135.91 76.00 134.31 78.02 129.02 C 80.05 123.74 80.27 116.36 83.22 111.22 C 86.18 106.08 88.41 100.16 88.00 97.00
C 86.87 97.34 85.19 96.96 84.00 97.00
C 80.76 97.12 78.01 98.19 75.00 99.00 Z"/>
</g>
<g fill="None" fill-opacity="0.0" stroke="#0F4755" stroke-opacity="1.00" stroke-width="0.3"><path d="
M 47.00 112.00 
C 50.99 109.04 56.24 106.27 61.00 105.00
C 64.45 103.60 69.56 102.87 73.00 101.00
C 73.55 100.70 74.41 99.29 75.00 99.00
C 65.11 101.64 54.61 104.90 47.00 112.00 Z"/>
</g>
<g fill="None" fill-opacity="0.0" stroke="#12A3C7" stroke-opacity="1.00" stroke-width="0.3"><path d="
M 61.00 105.00 
C 63.25 104.40 65.58 104.07 68.00 104.00
C 62.56 115.83 59.96 128.64 60.00 142.00
C 57.33 142.00 54.67 142.00 52.00 142.00
C 55.79 143.28 59.87 143.18 64.00 142.00
C 70.84 129.55 69.54 113.61 77.00 101.00
C 75.67 100.97 74.33 101.03 73.00 101.00
C 69.56 102.87 64.45 103.60 61.00 105.00 Z"/>
</g>
<g fill="None" fill-opacity="0.0" stroke="#36BCDE" stroke-opacity="1.00" stroke-width="0.3"><path d="
M 61.00 105.00 
C 56.24 106.27 50.99 109.04 47.00 112.00
C 40.31 118.25 38.64 126.33 42.00 135.00
C 43.66 137.92 49.13 141.03 52.00 142.00
C 54.67 142.00 57.33 142.00 60.00 142.00
C 59.96 128.64 62.56 115.83 68.00 104.00
C 65.58 104.07 63.25 104.40 61.00 105.00 Z"/>
</g>
<g fill="None" fill-opacity="0.0" stroke="#084B5C" stroke-opacity="1.00" stroke-width="0.3"><path d="
M 240.00 118.00 
C 236.63 115.98 232.81 121.33 236.33 123.67 C 239.85 126.01 243.12 119.87 240.00 118.00 Z"/>
</g>
<g fill="None" fill-opacity="0.0" stroke="#D6D6D6" stroke-opacity="1.00" stroke-width="0.3"><path d="
M 172.00 134.00 
C 180.62 128.83 163.05 123.68 156.08 128.08 C 149.11 132.47 143.55 142.59 149.25 150.75 C 154.94 158.92 165.69 160.50 173.00 155.00
C 174.15 157.46 175.69 158.78 179.00 158.00
C 179.00 153.00 179.00 148.00 179.00 143.00
C 174.50 144.35 164.54 139.93 164.00 146.00
C 167.33 146.00 170.67 146.00 174.00 146.00
C 172.83 157.71 154.82 157.53 152.00 146.00 C 149.18 134.47 163.43 123.64 172.00 134.00 Z"/>
</g>
<g fill="None" fill-opacity="0.0" stroke="#114451" stroke-opacity="1.00" stroke-width="0.3"><path d="
M 67.00 141.00 
C 66.07 141.67 65.02 141.71 64.00 142.00
C 59.87 143.18 55.79 143.28 52.00 142.00
C 49.13 141.03 43.66 137.92 42.00 135.00
C 45.12 143.04 61.15 148.63 67.00 141.00 Z"/>
</g>
<g fill="None" fill-opacity="0.0" stroke="#0A6176" stroke-opacity="1.00" stroke-width="0.3"><path d="
M 258.00 146.00 
C 250.32 151.70 243.73 160.26 236.25 166.25 C 228.77 172.24 228.54 186.69 221.00 193.00
C 228.00 192.49 236.24 193.50 242.00 190.00
C 239.44 190.59 236.85 191.44 234.00 191.00
C 244.10 179.09 241.51 160.45 255.00 151.00
C 257.03 148.97 260.42 144.73 263.00 144.00
C 261.18 144.30 259.58 145.01 258.00 146.00 Z"/>
</g>
<g fill="None" fill-opacity="0.0" stroke="#119BBD" stroke-opacity="1.00" stroke-width="0.3"><path d="
M 255.00 151.00 
C 251.66 156.23 251.09 166.39 249.08 172.08 C 247.06 177.76 241.40 186.22 244.00 190.00
C 246.72 189.25 249.20 188.65 252.00 188.00
C 253.35 187.68 254.62 187.33 256.00 187.00
C 258.65 185.92 262.26 183.25 265.00 182.00
C 262.72 182.73 260.26 183.05 258.00 184.00
C 262.24 171.79 265.22 159.17 266.00 146.00
C 268.19 145.48 271.62 147.14 273.00 145.00
C 270.00 143.97 266.35 143.44 263.00 144.00
C 260.42 144.73 257.03 148.97 255.00 151.00 Z"/>
</g>
<g fill="None" fill-opacity="0.0" stroke="#36BDDF" stroke-opacity="1.00" stroke-width="0.3"><path d="
M 265.00 182.00 
C 272.45 179.61 281.31 175.08 284.00 167.00
C 285.32 157.79 283.06 148.44 273.00 145.00
C 271.62 147.14 268.19 145.48 266.00 146.00
C 265.22 159.17 262.24 171.79 258.00 184.00
C 260.26 183.05 262.72 182.73 265.00 182.00 Z"/>
</g>
<g fill="None" fill-opacity="0.0" stroke="#063B48" stroke-opacity="1.00" stroke-width="0.3"><path d="
M 243.00 159.00 
C 228.60 171.80 209.55 177.75 196.00 192.00
C 203.45 196.92 214.02 194.34 223.00 195.00
C 233.33 194.03 242.75 191.70 252.00 188.00
C 249.20 188.65 246.72 189.25 244.00 190.00
C 243.54 190.13 242.47 189.89 242.00 190.00
C 236.24 193.50 228.00 192.49 221.00 193.00
C 228.54 186.69 228.77 172.24 236.25 166.25 C 243.73 160.26 250.32 151.70 258.00 146.00
C 252.80 149.27 247.59 154.92 243.00 159.00 Z"/>
</g>
<g fill="None" fill-opacity="0.0" stroke="#0D7D99" stroke-opacity="1.00" stroke-width="0.3"><path d="
M 242.00 190.00 
C 242.47 189.89 243.54 190.13 244.00 190.00
C 241.40 186.22 247.06 177.76 249.08 172.08 C 251.09 166.39 251.66 156.23 255.00 151.00
C 241.51 160.45 244.10 179.09 234.00 191.00
C 236.85 191.44 239.44 190.59 242.00 190.00 Z"/>
</g>
<g fill="None" fill-opacity="0.0" stroke="#031B21" stroke-opacity="1.00" stroke-width="0.3"><path d="
M 223.00 195.00 
C 214.02 194.34 203.45 196.92 196.00 192.00
C 209.55 177.75 228.60 171.80 243.00 159.00
C 234.00 166.10 225.03 170.26 215.03 176.03 C 205.02 181.79 191.02 181.42 181.00 187.00
C 191.86 196.22 209.09 197.93 223.00 195.00 Z"/>
</g>
<g fill="None" fill-opacity="0.0" stroke="#074250" stroke-opacity="1.00" stroke-width="0.3"><path d="
M 89.00 163.00 
C 84.18 161.14 81.90 168.27 85.99 169.99 C 90.08 171.71 92.87 164.50 89.00 163.00 Z"/>
</g>
<g fill="None" fill-opacity="0.0" stroke="#042730" stroke-opacity="1.00" stroke-width="0.3"><path d="
M 114.00 218.00 
C 113.84 217.56 114.00 217.00 114.00 217.00
C 113.92 213.57 113.14 210.56 113.00 207.00
C 112.26 201.83 110.71 194.46 113.00 189.00
C 122.01 197.50 133.87 202.18 139.00 214.00
C 144.53 222.93 154.56 229.36 160.00 238.00
C 148.55 228.53 142.68 216.62 135.25 204.75 C 127.83 192.87 125.52 176.41 116.00 167.00
C 110.27 181.92 107.87 202.84 114.00 218.00 Z"/>
</g>
<g fill="None" fill-opacity="0.0" stroke="#16414C" stroke-opacity="1.00" stroke-width="0.3"><path d="
M 265.00 182.00 
C 262.26 183.25 258.65 185.92 256.00 187.00
C 266.71 184.45 282.44 177.94 284.00 167.00
C 281.31 175.08 272.45 179.61 265.00 182.00 Z"/>
</g>
<g fill="None" fill-opacity="0.0" stroke="#074150" stroke-opacity="1.00" stroke-width="0.3"><path d="
M 113.00 207.00 
C 112.87 203.67 113.10 200.33 113.00 197.00
C 121.11 203.69 130.79 207.53 139.00 214.00
C 133.87 202.18 122.01 197.50 113.00 189.00
C 110.71 194.46 112.26 201.83 113.00 207.00 Z"/>
</g>
<g fill="None" fill-opacity="0.0" stroke="#2CA1BF" stroke-opacity="1.00" stroke-width="0.3"><path d="
M 81.00 190.00 
C 73.76 188.42 68.00 199.28 76.00 203.00 C 84.00 206.72 89.31 191.82 81.00 190.00 Z"/>
</g>
<g fill="None" fill-opacity="0.0" stroke="#09576A" stroke-opacity="1.00" stroke-width="0.3"><path d="
M 113.00 207.00 
C 113.14 210.56 113.92 213.57 114.00 217.00
C 114.78 215.35 115.45 213.27 115.00 211.00
C 127.33 221.40 145.85 220.01 155.00 235.00
C 156.55 236.32 157.78 237.41 159.00 239.00
C 159.49 239.64 160.67 240.51 161.00 241.00
C 160.70 240.14 160.35 238.74 160.00 238.00
C 154.56 229.36 144.53 222.93 139.00 214.00
C 130.79 207.53 121.11 203.69 113.00 197.00
C 113.10 200.33 112.87 203.67 113.00 207.00 Z"/>
</g>
<g fill="None" fill-opacity="0.0" stroke="#0C6E86" stroke-opacity="1.00" stroke-width="0.3"><path d="
M 114.00 217.00 
C 114.00 217.00 113.84 217.56 114.00 218.00
C 114.40 219.09 114.69 219.92 115.00 221.00
C 115.06 220.33 116.94 218.35 116.00 217.00
C 127.88 225.61 144.29 224.70 155.00 235.00
C 145.85 220.01 127.33 221.40 115.00 211.00
C 115.45 213.27 114.78 215.35 114.00 217.00 Z"/>
</g>
<g fill="None" fill-opacity="0.0" stroke="#084C5D" stroke-opacity="1.00" stroke-width="0.3"><path d="
M 187.00 216.00 
C 184.43 214.52 179.85 219.50 183.33 221.67 C 186.81 223.83 190.22 217.86 187.00 216.00 Z"/>
</g>
<g fill="None" fill-opacity="0.0" stroke="#90D8EA" stroke-opacity="1.00" stroke-width="0.3"><path d="
M 67.00 223.00 
C 67.42 228.06 77.90 231.05 79.00 236.00
C 82.23 235.26 83.56 232.61 85.00 230.00
C 85.89 226.12 84.74 220.06 81.00 218.00
C 75.40 215.41 69.12 217.26 67.00 223.00 Z"/>
</g>
<g fill="None" fill-opacity="0.0" stroke="#0E829E" stroke-opacity="1.00" stroke-width="0.3"><path d="
M 115.00 221.00 
C 115.68 223.35 116.27 225.70 117.00 228.00
C 118.57 223.42 131.45 231.66 136.22 232.78 C 141.00 233.89 154.72 234.88 159.00 239.00
C 157.78 237.41 156.55 236.32 155.00 235.00
C 144.29 224.70 127.88 225.61 116.00 217.00
C 116.94 218.35 115.06 220.33 115.00 221.00 Z"/>
</g>
<g fill="None" fill-opacity="0.0" stroke="#2B505A" stroke-opacity="1.00" stroke-width="0.3"><path d="
M 85.00 230.00 
C 87.38 225.69 86.80 220.68 81.00 218.00
C 84.74 220.06 85.89 226.12 85.00 230.00 Z"/>
</g>
<g fill="None" fill-opacity="0.0" stroke="#2B9DBB" stroke-opacity="1.00" stroke-width="0.3"><path d="
M 219.00 221.00 
C 210.94 217.61 204.66 228.97 212.33 233.67 C 220.00 238.37 226.18 224.02 219.00 221.00 Z"/>
</g>
<g fill="None" fill-opacity="0.0" stroke="#85D6EA" stroke-opacity="1.00" stroke-width="0.3"><path d="
M 237.00 226.00 
C 235.62 228.98 235.63 232.03 237.00 235.00
C 237.66 236.13 240.09 237.12 241.00 238.00
C 243.54 233.90 248.87 225.66 254.00 227.00
C 253.24 224.93 251.24 221.68 249.00 221.00
C 243.65 219.81 239.86 221.70 237.00 226.00 Z"/>
</g>
<g fill="None" fill-opacity="0.0" stroke="#46585D" stroke-opacity="1.00" stroke-width="0.3"><path d="
M 254.00 227.00 
C 255.07 229.94 255.36 232.06 254.00 235.00
C 257.14 230.28 255.89 222.53 249.00 221.00
C 251.24 221.68 253.24 224.93 254.00 227.00 Z"/>
</g>
<g fill="None" fill-opacity="0.0" stroke="#B7D6DD" stroke-opacity="1.00" stroke-width="0.3"><path d="
M 79.00 236.00 
C 77.90 231.05 67.42 228.06 67.00 223.00
C 64.20 230.59 70.15 238.03 79.00 236.00 Z"/>
</g>
<g fill="None" fill-opacity="0.0" stroke="#119CBF" stroke-opacity="1.00" stroke-width="0.3"><path d="
M 117.00 228.00 
C 118.37 232.34 119.63 236.72 121.00 241.00
C 121.57 242.23 123.40 243.83 124.00 245.00
C 123.41 242.74 123.06 240.43 123.00 238.00
C 135.01 242.79 147.68 245.81 161.00 246.00
C 161.47 247.88 159.94 250.93 162.00 252.00
C 162.56 248.49 162.09 244.17 161.00 241.00
C 160.67 240.51 159.49 239.64 159.00 239.00
C 154.72 234.88 141.00 233.89 136.22 232.78 C 131.45 231.66 118.57 223.42 117.00 228.00 Z"/>
</g>
<g fill="None" fill-opacity="0.0" stroke="#305058" stroke-opacity="1.00" stroke-width="0.3"><path d="
M 240.00 239.00 
C 239.13 238.49 237.42 235.92 237.00 235.00
C 235.63 232.03 235.62 228.98 237.00 226.00
C 234.16 230.27 234.04 236.31 240.00 239.00 Z"/>
</g>
<g fill="None" fill-opacity="0.0" stroke="#B8E1EB" stroke-opacity="1.00" stroke-width="0.3"><path d="
M 237.00 235.00 
C 237.42 235.92 239.13 238.49 240.00 239.00
C 245.37 241.43 250.78 239.84 254.00 235.00
C 255.36 232.06 255.07 229.94 254.00 227.00
C 248.87 225.66 243.54 233.90 241.00 238.00
C 240.09 237.12 237.66 236.13 237.00 235.00 Z"/>
</g>
<g fill="None" fill-opacity="0.0" stroke="#35BBDD" stroke-opacity="1.00" stroke-width="0.3"><path d="
M 124.00 245.00 
C 125.01 248.90 126.71 253.56 129.00 257.00
C 137.96 267.91 159.16 269.87 162.00 252.00
C 159.94 250.93 161.47 247.88 161.00 246.00
C 147.68 245.81 135.01 242.79 123.00 238.00
C 123.06 240.43 123.41 242.74 124.00 245.00 Z"/>
</g>
<g fill="None" fill-opacity="0.0" stroke="#124350" stroke-opacity="1.00" stroke-width="0.3"><path d="
M 129.00 257.00 
C 126.71 253.56 125.01 248.90 124.00 245.00
C 123.40 243.83 121.57 242.23 121.00 241.00
C 122.86 246.81 125.19 252.36 129.00 257.00 Z"/>
</g>
<g fill="#000000" fill-opacity="1.00" stroke="None">
<path d="
M 0.00 284.00 
L 325.00 284.00
L 325.00 0.00
L 0.00 0.00
L 0.00 284.00
M 203.00 44.00 
C 204.97 50.14 205.92 56.92 208.00 63.00
C 208.48 64.39 209.44 66.10 210.00 68.00
C 210.24 68.83 210.82 69.71 211.00 71.00
C 213.93 81.52 214.45 93.25 214.00 105.00
C 213.64 114.41 210.93 124.15 203.00 130.00
C 200.26 118.18 200.05 105.69 196.00 94.00
C 193.20 85.03 187.25 77.30 182.70 69.30 C 178.14 61.31 169.72 56.76 165.00 49.00
C 164.61 48.36 164.14 47.75 164.00 47.00
C 163.91 46.52 164.03 45.00 164.00 45.00
C 163.74 44.98 163.05 43.22 163.00 43.00
C 160.95 34.43 167.10 24.74 175.00 22.00
C 190.77 16.53 198.98 31.44 203.00 44.00
M 83.00 67.00 
C 78.14 67.93 71.04 65.41 70.00 60.00
C 68.46 52.00 75.47 46.62 83.00 48.00
C 92.42 49.01 92.07 65.25 83.00 67.00
M 253.00 52.00 
C 262.57 56.47 259.88 71.67 248.99 70.99 C 238.11 70.31 235.90 55.73 246.00 52.00
C 248.63 51.03 250.38 50.77 253.00 52.00
M 112.00 66.00 
C 106.06 68.60 100.88 62.81 104.00 57.00
C 109.23 47.27 122.98 61.20 112.00 66.00
M 142.00 65.00 
C 145.86 66.49 143.08 73.71 138.99 71.99 C 134.90 70.27 137.18 63.14 142.00 65.00
M 244.00 97.00 
C 237.76 95.35 239.21 85.85 245.00 85.00
C 255.86 83.40 254.58 99.79 244.00 97.00
M 123.00 93.00 
C 129.52 93.91 133.92 93.73 140.02 96.98 C 146.13 100.22 137.87 104.47 132.99 104.99 C 128.11 105.51 120.87 107.31 115.93 108.93 C 110.98 110.55 105.68 113.78 101.00 116.00
C 93.39 119.60 86.61 124.78 80.00 130.00
C 76.04 133.12 72.47 138.82 68.00 141.00
C 67.60 141.20 67.00 141.00 67.00 141.00
C 61.15 148.63 45.12 143.04 42.00 135.00
C 38.64 126.33 40.31 118.25 47.00 112.00
C 54.61 104.90 65.11 101.64 75.00 99.00
C 78.01 98.19 80.76 97.12 84.00 97.00
C 88.25 95.55 90.80 93.97 96.00 94.00
C 97.33 94.01 98.67 94.00 100.00 94.00
C 107.22 92.09 114.85 91.86 123.00 93.00
M 240.00 118.00 
C 243.12 119.87 239.85 126.01 236.33 123.67 C 232.81 121.33 236.63 115.98 240.00 118.00
M 172.00 134.00 
C 163.43 123.64 149.18 134.47 152.00 146.00 C 154.82 157.53 172.83 157.71 174.00 146.00
C 170.67 146.00 167.33 146.00 164.00 146.00
C 164.54 139.93 174.50 144.35 179.00 143.00
C 179.00 148.00 179.00 153.00 179.00 158.00
C 175.69 158.78 174.15 157.46 173.00 155.00
C 165.69 160.50 154.94 158.92 149.25 150.75 C 143.55 142.59 149.11 132.47 156.08 128.08 C 163.05 123.68 180.62 128.83 172.00 134.00
M 273.00 145.00 
C 283.06 148.44 285.32 157.79 284.00 167.00
C 282.44 177.94 266.71 184.45 256.00 187.00
C 254.62 187.33 253.35 187.68 252.00 188.00
C 242.75 191.70 233.33 194.03 223.00 195.00
C 209.09 197.93 191.86 196.22 181.00 187.00
C 191.02 181.42 205.02 181.79 215.03 176.03 C 225.03 170.26 234.00 166.10 243.00 159.00
C 247.59 154.92 252.80 149.27 258.00 146.00
C 259.58 145.01 261.18 144.30 263.00 144.00
C 266.35 143.44 270.00 143.97 273.00 145.00
M 89.00 163.00 
C 92.87 164.50 90.08 171.71 85.99 169.99 C 81.90 168.27 84.18 161.14 89.00 163.00
M 160.00 238.00 
C 160.35 238.74 160.70 240.14 161.00 241.00
C 162.09 244.17 162.56 248.49 162.00 252.00
C 159.16 269.87 137.96 267.91 129.00 257.00
C 125.19 252.36 122.86 246.81 121.00 241.00
C 119.63 236.72 118.37 232.34 117.00 228.00
C 116.27 225.70 115.68 223.35 115.00 221.00
C 114.69 219.92 114.40 219.09 114.00 218.00
C 107.87 202.84 110.27 181.92 116.00 167.00
C 125.52 176.41 127.83 192.87 135.25 204.75 C 142.68 216.62 148.55 228.53 160.00 238.00
M 81.00 190.00 
C 89.31 191.82 84.00 206.72 76.00 203.00 C 68.00 199.28 73.76 188.42 81.00 190.00
M 187.00 216.00 
C 190.22 217.86 186.81 223.83 183.33 221.67 C 179.85 219.50 184.43 214.52 187.00 216.00
M 81.00 218.00 
C 86.80 220.68 87.38 225.69 85.00 230.00
C 83.56 232.61 82.23 235.26 79.00 236.00
C 70.15 238.03 64.20 230.59 67.00 223.00
C 69.12 217.26 75.40 215.41 81.00 218.00
M 219.00 221.00 
C 226.18 224.02 220.00 238.37 212.33 233.67 C 204.66 228.97 210.94 217.61 219.00 221.00
M 254.00 235.00 
C 250.78 239.84 245.37 241.43 240.00 239.00
C 234.04 236.31 234.16 230.27 237.00 226.00
C 239.86 221.70 243.65 219.81 249.00 221.00
C 255.89 222.53 257.14 230.28 254.00 235.00 Z"/>
</g>
<g fill="#1C4853" fill-opacity="1.00" stroke="None">
<path d="
M 175.00 22.00 
C 189.17 19.11 197.18 30.55 201.00 42.00
C 201.35 42.61 202.66 43.42 203.00 44.00
C 198.98 31.44 190.77 16.53 175.00 22.00 Z"/>
</g>
<g fill="#31B9DB" fill-opacity="1.00" stroke="None">
<path d="
M 163.00 43.00 
C 163.31 41.80 172.86 45.23 176.02 44.98 C 179.19 44.72 186.45 46.73 190.22 47.78 C 193.99 48.82 199.96 51.20 204.00 52.00
C 203.38 48.57 201.62 45.47 201.00 42.00
C 197.18 30.55 189.17 19.11 175.00 22.00
C 167.10 24.74 160.95 34.43 163.00 43.00 Z"/>
</g>
<g fill="#1199BA" fill-opacity="1.00" stroke="None">
<path d="
M 163.00 43.00 
C 163.05 43.22 163.74 44.98 164.00 45.00
C 173.05 58.56 195.67 52.77 208.00 63.00
C 205.92 56.92 204.97 50.14 203.00 44.00
C 202.66 43.42 201.35 42.61 201.00 42.00
C 201.62 45.47 203.38 48.57 204.00 52.00
C 199.96 51.20 193.99 48.82 190.22 47.78 C 186.45 46.73 179.19 44.72 176.02 44.98 C 172.86 45.23 163.31 41.80 163.00 43.00 Z"/>
</g>
<g fill="#0E809C" fill-opacity="1.00" stroke="None">
<path d="
M 164.00 47.00 
C 175.97 62.46 195.04 61.58 210.00 72.00
C 210.00 70.67 210.00 69.33 210.00 68.00
C 209.44 66.10 208.48 64.39 208.00 63.00
C 195.67 52.77 173.05 58.56 164.00 45.00
C 164.03 45.00 163.91 46.52 164.00 47.00 Z"/>
</g>
<g fill="#0A6075" fill-opacity="1.00" stroke="None">
<path d="
M 165.00 49.00 
C 179.51 64.55 193.30 78.95 212.00 88.00
C 212.26 82.17 211.91 76.55 211.00 71.00
C 210.82 69.71 210.24 68.83 210.00 68.00
C 210.00 69.33 210.00 70.67 210.00 72.00
C 195.04 61.58 175.97 62.46 164.00 47.00
C 164.14 47.75 164.61 48.36 165.00 49.00 Z"/>
</g>
<g fill="#BEE3ED" fill-opacity="1.00" stroke="None">
<path d="
M 70.00 60.00 
C 72.19 63.44 82.54 51.37 83.00 49.00
C 83.09 48.52 83.00 48.00 83.00 48.00
C 75.47 46.62 68.46 52.00 70.00 60.00 Z"/>
</g>
<g fill="#416D78" fill-opacity="1.00" stroke="None">
<path d="
M 83.00 49.00 
C 90.69 51.51 91.17 64.70 83.00 67.00
C 92.07 65.25 92.42 49.01 83.00 48.00
C 83.00 48.00 83.09 48.52 83.00 49.00 Z"/>
</g>
<g fill="#8AD6EA" fill-opacity="1.00" stroke="None">
<path d="
M 70.00 60.00 
C 71.04 65.41 78.14 67.93 83.00 67.00
C 91.17 64.70 90.69 51.51 83.00 49.00
C 82.54 51.37 72.19 63.44 70.00 60.00 Z"/>
</g>
<g fill="#063845" fill-opacity="1.00" stroke="None">
<path d="
M 196.00 94.00 
C 199.74 100.17 207.89 105.86 212.00 111.00
C 212.91 109.17 212.34 106.26 214.00 105.00
C 214.45 93.25 213.93 81.52 211.00 71.00
C 211.91 76.55 212.26 82.17 212.00 88.00
C 193.30 78.95 179.51 64.55 165.00 49.00
C 169.72 56.76 178.14 61.31 182.70 69.30 C 187.25 77.30 193.20 85.03 196.00 94.00 Z"/>
</g>
<g fill="#637377" fill-opacity="1.00" stroke="None">
<path d="
M 246.00 52.00 
C 247.66 51.66 251.37 51.54 253.00 52.00
C 250.38 50.77 248.63 51.03 246.00 52.00 Z"/>
</g>
<g fill="#97D5E6" fill-opacity="1.00" stroke="None">
<path d="
M 253.00 52.00 
C 251.37 51.54 247.66 51.66 246.00 52.00
C 235.90 55.73 238.11 70.31 248.99 70.99 C 259.88 71.67 262.57 56.47 253.00 52.00 Z"/>
</g>
<g fill="#2EA7C7" fill-opacity="1.00" stroke="None">
<path d="
M 104.00 57.00 
C 102.32 62.06 106.84 67.11 112.00 66.00
C 122.98 61.20 109.23 47.27 104.00 57.00 Z"/>
</g>
<g fill="#185F71" fill-opacity="1.00" stroke="None">
<path d="
M 112.00 66.00 
C 106.84 67.11 102.32 62.06 104.00 57.00
C 100.88 62.81 106.06 68.60 112.00 66.00 Z"/>
</g>
<g fill="#074150" fill-opacity="1.00" stroke="None">
<path d="
M 142.00 65.00 
C 137.18 63.14 134.90 70.27 138.99 71.99 C 143.08 73.71 145.86 66.49 142.00 65.00 Z"/>
</g>
<g fill="#167B94" fill-opacity="1.00" stroke="None">
<path d="
M 244.00 97.00 
C 239.17 95.19 240.47 86.05 245.00 85.00
C 239.21 85.85 237.76 95.35 244.00 97.00 Z"/>
</g>
<g fill="#2FA8C8" fill-opacity="1.00" stroke="None">
<path d="
M 244.00 97.00 
C 254.58 99.79 255.86 83.40 245.00 85.00
C 240.47 86.05 239.17 95.19 244.00 97.00 Z"/>
</g>
<g fill="#063844" fill-opacity="1.00" stroke="None">
<path d="
M 100.00 94.00 
C 103.33 94.00 106.67 94.00 110.00 94.00
C 99.21 106.27 94.45 121.40 80.00 130.00
C 86.61 124.78 93.39 119.60 101.00 116.00
C 110.50 110.47 117.31 101.84 126.00 95.00
C 125.76 93.33 123.15 94.83 123.00 93.00
C 114.85 91.86 107.22 92.09 100.00 94.00 Z"/>
</g>
<g fill="#031F26" fill-opacity="1.00" stroke="None">
<path d="
M 101.00 116.00 
C 105.68 113.78 110.98 110.55 115.93 108.93 C 120.87 107.31 128.11 105.51 132.99 104.99 C 137.87 104.47 146.13 100.22 140.02 96.98 C 133.92 93.73 129.52 93.91 123.00 93.00
C 123.15 94.83 125.76 93.33 126.00 95.00
C 117.31 101.84 110.50 110.47 101.00 116.00 Z"/>
</g>
<g fill="#05303A" fill-opacity="1.00" stroke="None">
<path d="
M 84.00 97.00 
C 85.19 96.96 86.87 97.34 88.00 97.00
C 88.23 96.93 89.48 96.19 90.00 96.00
C 91.38 95.51 94.67 94.17 96.00 94.00
C 90.80 93.97 88.25 95.55 84.00 97.00 Z"/>
</g>
<g fill="#095568" fill-opacity="1.00" stroke="None">
<path d="
M 90.00 96.00 
C 91.94 95.66 94.04 96.25 96.00 96.00
C 87.09 111.47 83.64 129.37 68.00 141.00
C 72.47 138.82 76.04 133.12 80.00 130.00
C 94.45 121.40 99.21 106.27 110.00 94.00
C 106.67 94.00 103.33 94.00 100.00 94.00
C 98.67 94.00 97.33 94.01 96.00 94.00
C 94.67 94.17 91.38 95.51 90.00 96.00 Z"/>
</g>
<g fill="#02181E" fill-opacity="1.00" stroke="None">
<path d="
M 214.00 105.00 
C 212.34 106.26 212.91 109.17 212.00 111.00
C 207.89 105.86 199.74 100.17 196.00 94.00
C 200.05 105.69 200.26 118.18 203.00 130.00
C 210.93 124.15 213.64 114.41 214.00 105.00 Z"/>
</g>
<g fill="#0C6B83" fill-opacity="1.00" stroke="None">
<path d="
M 88.00 97.00 
C 88.41 100.16 86.18 106.08 83.22 111.22 C 80.27 116.36 80.05 123.74 78.02 129.02 C 76.00 134.31 69.12 135.91 67.00 141.00
C 67.00 141.00 67.60 141.20 68.00 141.00
C 83.64 129.37 87.09 111.47 96.00 96.00
C 94.04 96.25 91.94 95.66 90.00 96.00
C 89.48 96.19 88.23 96.93 88.00 97.00 Z"/>
</g>
<g fill="#0E86A3" fill-opacity="1.00" stroke="None">
<path d="
M 75.00 99.00 
C 74.41 99.29 73.55 100.70 73.00 101.00
C 74.33 101.03 75.67 100.97 77.00 101.00
C 69.54 113.61 70.84 129.55 64.00 142.00
C 65.02 141.71 66.07 141.67 67.00 141.00
C 69.12 135.91 76.00 134.31 78.02 129.02 C 80.05 123.74 80.27 116.36 83.22 111.22 C 86.18 106.08 88.41 100.16 88.00 97.00
C 86.87 97.34 85.19 96.96 84.00 97.00
C 80.76 97.12 78.01 98.19 75.00 99.00 Z"/>
</g>
<g fill="#0F4755" fill-opacity="1.00" stroke="None">
<path d="
M 47.00 112.00 
C 50.99 109.04 56.24 106.27 61.00 105.00
C 64.45 103.60 69.56 102.87 73.00 101.00
C 73.55 100.70 74.41 99.29 75.00 99.00
C 65.11 101.64 54.61 104.90 47.00 112.00 Z"/>
</g>
<g fill="#12A3C7" fill-opacity="1.00" stroke="None">
<path d="
M 61.00 105.00 
C 63.25 104.40 65.58 104.07 68.00 104.00
C 62.56 115.83 59.96 128.64 60.00 142.00
C 57.33 142.00 54.67 142.00 52.00 142.00
C 55.79 143.28 59.87 143.18 64.00 142.00
C 70.84 129.55 69.54 113.61 77.00 101.00
C 75.67 100.97 74.33 101.03 73.00 101.00
C 69.56 102.87 64.45 103.60 61.00 105.00 Z"/>
</g>
<g fill="#36BCDE" fill-opacity="1.00" stroke="None">
<path d="
M 61.00 105.00 
C 56.24 106.27 50.99 109.04 47.00 112.00
C 40.31 118.25 38.64 126.33 42.00 135.00
C 43.66 137.92 49.13 141.03 52.00 142.00
C 54.67 142.00 57.33 142.00 60.00 142.00
C 59.96 128.64 62.56 115.83 68.00 104.00
C 65.58 104.07 63.25 104.40 61.00 105.00 Z"/>
</g>
<g fill="#084B5C" fill-opacity="1.00" stroke="None">
<path d="
M 240.00 118.00 
C 236.63 115.98 232.81 121.33 236.33 123.67 C 239.85 126.01 243.12 119.87 240.00 118.00 Z"/>
</g>
<g fill="#D6D6D6" fill-opacity="1.00" stroke="None">
<path d="
M 172.00 134.00 
C 180.62 128.83 163.05 123.68 156.08 128.08 C 149.11 132.47 143.55 142.59 149.25 150.75 C 154.94 158.92 165.69 160.50 173.00 155.00
C 174.15 157.46 175.69 158.78 179.00 158.00
C 179.00 153.00 179.00 148.00 179.00 143.00
C 174.50 144.35 164.54 139.93 164.00 146.00
C 167.33 146.00 170.67 146.00 174.00 146.00
C 172.83 157.71 154.82 157.53 152.00 146.00 C 149.18 134.47 163.43 123.64 172.00 134.00 Z"/>
</g>
<g fill="#114451" fill-opacity="1.00" stroke="None">
<path d="
M 67.00 141.00 
C 66.07 141.67 65.02 141.71 64.00 142.00
C 59.87 143.18 55.79 143.28 52.00 142.00
C 49.13 141.03 43.66 137.92 42.00 135.00
C 45.12 143.04 61.15 148.63 67.00 141.00 Z"/>
</g>
<g fill="#0A6176" fill-opacity="1.00" stroke="None">
<path d="
M 258.00 146.00 
C 250.32 151.70 243.73 160.26 236.25 166.25 C 228.77 172.24 228.54 186.69 221.00 193.00
C 228.00 192.49 236.24 193.50 242.00 190.00
C 239.44 190.59 236.85 191.44 234.00 191.00
C 244.10 179.09 241.51 160.45 255.00 151.00
C 257.03 148.97 260.42 144.73 263.00 144.00
C 261.18 144.30 259.58 145.01 258.00 146.00 Z"/>
</g>
<g fill="#119BBD" fill-opacity="1.00" stroke="None">
<path d="
M 255.00 151.00 
C 251.66 156.23 251.09 166.39 249.08 172.08 C 247.06 177.76 241.40 186.22 244.00 190.00
C 246.72 189.25 249.20 188.65 252.00 188.00
C 253.35 187.68 254.62 187.33 256.00 187.00
C 258.65 185.92 262.26 183.25 265.00 182.00
C 262.72 182.73 260.26 183.05 258.00 184.00
C 262.24 171.79 265.22 159.17 266.00 146.00
C 268.19 145.48 271.62 147.14 273.00 145.00
C 270.00 143.97 266.35 143.44 263.00 144.00
C 260.42 144.73 257.03 148.97 255.00 151.00 Z"/>
</g>
<g fill="#36BDDF" fill-opacity="1.00" stroke="None">
<path d="
M 265.00 182.00 
C 272.45 179.61 281.31 175.08 284.00 167.00
C 285.32 157.79 283.06 148.44 273.00 145.00
C 271.62 147.14 268.19 145.48 266.00 146.00
C 265.22 159.17 262.24 171.79 258.00 184.00
C 260.26 183.05 262.72 182.73 265.00 182.00 Z"/>
</g>
<g fill="#063B48" fill-opacity="1.00" stroke="None">
<path d="
M 243.00 159.00 
C 228.60 171.80 209.55 177.75 196.00 192.00
C 203.45 196.92 214.02 194.34 223.00 195.00
C 233.33 194.03 242.75 191.70 252.00 188.00
C 249.20 188.65 246.72 189.25 244.00 190.00
C 243.54 190.13 242.47 189.89 242.00 190.00
C 236.24 193.50 228.00 192.49 221.00 193.00
C 228.54 186.69 228.77 172.24 236.25 166.25 C 243.73 160.26 250.32 151.70 258.00 146.00
C 252.80 149.27 247.59 154.92 243.00 159.00 Z"/>
</g>
<g fill="#0D7D99" fill-opacity="1.00" stroke="None">
<path d="
M 242.00 190.00 
C 242.47 189.89 243.54 190.13 244.00 190.00
C 241.40 186.22 247.06 177.76 249.08 172.08 C 251.09 166.39 251.66 156.23 255.00 151.00
C 241.51 160.45 244.10 179.09 234.00 191.00
C 236.85 191.44 239.44 190.59 242.00 190.00 Z"/>
</g>
<g fill="#031B21" fill-opacity="1.00" stroke="None">
<path d="
M 223.00 195.00 
C 214.02 194.34 203.45 196.92 196.00 192.00
C 209.55 177.75 228.60 171.80 243.00 159.00
C 234.00 166.10 225.03 170.26 215.03 176.03 C 205.02 181.79 191.02 181.42 181.00 187.00
C 191.86 196.22 209.09 197.93 223.00 195.00 Z"/>
</g>
<g fill="#074250" fill-opacity="1.00" stroke="None">
<path d="
M 89.00 163.00 
C 84.18 161.14 81.90 168.27 85.99 169.99 C 90.08 171.71 92.87 164.50 89.00 163.00 Z"/>
</g>
<g fill="#042730" fill-opacity="1.00" stroke="None">
<path d="
M 114.00 218.00 
C 113.84 217.56 114.00 217.00 114.00 217.00
C 113.92 213.57 113.14 210.56 113.00 207.00
C 112.26 201.83 110.71 194.46 113.00 189.00
C 122.01 197.50 133.87 202.18 139.00 214.00
C 144.53 222.93 154.56 229.36 160.00 238.00
C 148.55 228.53 142.68 216.62 135.25 204.75 C 127.83 192.87 125.52 176.41 116.00 167.00
C 110.27 181.92 107.87 202.84 114.00 218.00 Z"/>
</g>
<g fill="#16414C" fill-opacity="1.00" stroke="None">
<path d="
M 265.00 182.00 
C 262.26 183.25 258.65 185.92 256.00 187.00
C 266.71 184.45 282.44 177.94 284.00 167.00
C 281.31 175.08 272.45 179.61 265.00 182.00 Z"/>
</g>
<g fill="#074150" fill-opacity="1.00" stroke="None">
<path d="
M 113.00 207.00 
C 112.87 203.67 113.10 200.33 113.00 197.00
C 121.11 203.69 130.79 207.53 139.00 214.00
C 133.87 202.18 122.01 197.50 113.00 189.00
C 110.71 194.46 112.26 201.83 113.00 207.00 Z"/>
</g>
<g fill="#2CA1BF" fill-opacity="1.00" stroke="None">
<path d="
M 81.00 190.00 
C 73.76 188.42 68.00 199.28 76.00 203.00 C 84.00 206.72 89.31 191.82 81.00 190.00 Z"/>
</g>
<g fill="#09576A" fill-opacity="1.00" stroke="None">
<path d="
M 113.00 207.00 
C 113.14 210.56 113.92 213.57 114.00 217.00
C 114.78 215.35 115.45 213.27 115.00 211.00
C 127.33 221.40 145.85 220.01 155.00 235.00
C 156.55 236.32 157.78 237.41 159.00 239.00
C 159.49 239.64 160.67 240.51 161.00 241.00
C 160.70 240.14 160.35 238.74 160.00 238.00
C 154.56 229.36 144.53 222.93 139.00 214.00
C 130.79 207.53 121.11 203.69 113.00 197.00
C 113.10 200.33 112.87 203.67 113.00 207.00 Z"/>
</g>
<g fill="#0C6E86" fill-opacity="1.00" stroke="None">
<path d="
M 114.00 217.00 
C 114.00 217.00 113.84 217.56 114.00 218.00
C 114.40 219.09 114.69 219.92 115.00 221.00
C 115.06 220.33 116.94 218.35 116.00 217.00
C 127.88 225.61 144.29 224.70 155.00 235.00
C 145.85 220.01 127.33 221.40 115.00 211.00
C 115.45 213.27 114.78 215.35 114.00 217.00 Z"/>
</g>
<g fill="#084C5D" fill-opacity="1.00" stroke="None">
<path d="
M 187.00 216.00 
C 184.43 214.52 179.85 219.50 183.33 221.67 C 186.81 223.83 190.22 217.86 187.00 216.00 Z"/>
</g>
<g fill="#90D8EA" fill-opacity="1.00" stroke="None">
<path d="
M 67.00 223.00 
C 67.42 228.06 77.90 231.05 79.00 236.00
C 82.23 235.26 83.56 232.61 85.00 230.00
C 85.89 226.12 84.74 220.06 81.00 218.00
C 75.40 215.41 69.12 217.26 67.00 223.00 Z"/>
</g>
<g fill="#0E829E" fill-opacity="1.00" stroke="None">
<path d="
M 115.00 221.00 
C 115.68 223.35 116.27 225.70 117.00 228.00
C 118.57 223.42 131.45 231.66 136.22 232.78 C 141.00 233.89 154.72 234.88 159.00 239.00
C 157.78 237.41 156.55 236.32 155.00 235.00
C 144.29 224.70 127.88 225.61 116.00 217.00
C 116.94 218.35 115.06 220.33 115.00 221.00 Z"/>
</g>
<g fill="#2B505A" fill-opacity="1.00" stroke="None">
<path d="
M 85.00 230.00 
C 87.38 225.69 86.80 220.68 81.00 218.00
C 84.74 220.06 85.89 226.12 85.00 230.00 Z"/>
</g>
<g fill="#2B9DBB" fill-opacity="1.00" stroke="None">
<path d="
M 219.00 221.00 
C 210.94 217.61 204.66 228.97 212.33 233.67 C 220.00 238.37 226.18 224.02 219.00 221.00 Z"/>
</g>
<g fill="#85D6EA" fill-opacity="1.00" stroke="None">
<path d="
M 237.00 226.00 
C 235.62 228.98 235.63 232.03 237.00 235.00
C 237.66 236.13 240.09 237.12 241.00 238.00
C 243.54 233.90 248.87 225.66 254.00 227.00
C 253.24 224.93 251.24 221.68 249.00 221.00
C 243.65 219.81 239.86 221.70 237.00 226.00 Z"/>
</g>
<g fill="#46585D" fill-opacity="1.00" stroke="None">
<path d="
M 254.00 227.00 
C 255.07 229.94 255.36 232.06 254.00 235.00
C 257.14 230.28 255.89 222.53 249.00 221.00
C 251.24 221.68 253.24 224.93 254.00 227.00 Z"/>
</g>
<g fill="#B7D6DD" fill-opacity="1.00" stroke="None">
<path d="
M 79.00 236.00 
C 77.90 231.05 67.42 228.06 67.00 223.00
C 64.20 230.59 70.15 238.03 79.00 236.00 Z"/>
</g>
<g fill="#119CBF" fill-opacity="1.00" stroke="None">
<path d="
M 117.00 228.00 
C 118.37 232.34 119.63 236.72 121.00 241.00
C 121.57 242.23 123.40 243.83 124.00 245.00
C 123.41 242.74 123.06 240.43 123.00 238.00
C 135.01 242.79 147.68 245.81 161.00 246.00
C 161.47 247.88 159.94 250.93 162.00 252.00
C 162.56 248.49 162.09 244.17 161.00 241.00
C 160.67 240.51 159.49 239.64 159.00 239.00
C 154.72 234.88 141.00 233.89 136.22 232.78 C 131.45 231.66 118.57 223.42 117.00 228.00 Z"/>
</g>
<g fill="#305058" fill-opacity="1.00" stroke="None">
<path d="
M 240.00 239.00 
C 239.13 238.49 237.42 235.92 237.00 235.00
C 235.63 232.03 235.62 228.98 237.00 226.00
C 234.16 230.27 234.04 236.31 240.00 239.00 Z"/>
</g>
<g fill="#B8E1EB" fill-opacity="1.00" stroke="None">
<path d="
M 237.00 235.00 
C 237.42 235.92 239.13 238.49 240.00 239.00
C 245.37 241.43 250.78 239.84 254.00 235.00
C 255.36 232.06 255.07 229.94 254.00 227.00
C 248.87 225.66 243.54 233.90 241.00 238.00
C 240.09 237.12 237.66 236.13 237.00 235.00 Z"/>
</g>
<g fill="#35BBDD" fill-opacity="1.00" stroke="None">
<path d="
M 124.00 245.00 
C 125.01 248.90 126.71 253.56 129.00 257.00
C 137.96 267.91 159.16 269.87 162.00 252.00
C 159.94 250.93 161.47 247.88 161.00 246.00
C 147.68 245.81 135.01 242.79 123.00 238.00
C 123.06 240.43 123.41 242.74 124.00 245.00 Z"/>
</g>
<g fill="#124350" fill-opacity="1.00" stroke="None">
<path d="
M 129.00 257.00 
C 126.71 253.56 125.01 248.90 124.00 245.00
C 123.40 243.83 121.57 242.23 121.00 241.00
C 122.86 246.81 125.19 252.36 129.00 257.00 Z"/>
</g>
</svg>